<?xml version="1.0" standalone="no"?><svg xmlns="http://www.w3.org/2000/svg" viewBox="0 0 1440 320"><path fill="#f3f4f5" fill-opacity="1" d="M0,128L14.1,122.7C28.2,117,56,107,85,112C112.9,117,141,139,169,144C197.6,149,226,139,254,165.3C282.4,192,311,256,339,272C367.1,288,395,256,424,256C451.8,256,480,288,508,261.3C536.5,235,565,149,593,106.7C621.2,64,649,64,678,85.3C705.9,107,734,149,762,138.7C790.6,128,819,64,847,80C875.3,96,904,192,932,218.7C960,245,988,203,1016,202.7C1044.7,203,1073,245,1101,229.3C1129.4,213,1158,139,1186,138.7C1214.1,139,1242,213,1271,234.7C1298.8,256,1327,224,1355,208C1383.5,192,1412,192,1426,192L1440,192L1440,0L1425.9,0C1411.8,0,1384,0,1355,0C1327.1,0,1299,0,1271,0C1242.4,0,1214,0,1186,0C1157.6,0,1129,0,1101,0C1072.9,0,1045,0,1016,0C988.2,0,960,0,932,0C903.5,0,875,0,847,0C818.8,0,791,0,762,0C734.1,0,706,0,678,0C649.4,0,621,0,593,0C564.7,0,536,0,508,0C480,0,452,0,424,0C395.3,0,367,0,339,0C310.6,0,282,0,254,0C225.9,0,198,0,169,0C141.2,0,113,0,85,0C56.5,0,28,0,14,0L0,0Z"></path></svg>